<svg xmlns="http://www.w3.org/2000/svg" xml:space="preserve" width="4.39662in" height="4.39662in" version="1.1" style="shape-rendering:geometricPrecision; text-rendering:geometricPrecision; image-rendering:optimizeQuality; fill-rule:evenodd; clip-rule:evenodd"
viewBox="0 0 4397 4397">
  <g id="_723755520">
   <path  d="M253 0l3892 0c139,0 253,114 253,253l0 3892c0,139 -114,253 -253,253l-3892 0c-138,0 -253,-114 -253,-253l0 -3892c0,-138 114,-253 253,-253zm1821 1249l1346 -318c-17,-9 -35,-14 -56,-14l-2330 0c-64,0 -116,52 -116,116l0 2330c0,64 52,116 116,116l2330 0c21,0 39,-5 56,-14l-1346 -317 0 -1899zm647 779l0 298 -328 -20 0 411 768 182 0 -1401 -768 181 0 369 328 -20z"/>
   </g>
</svg>
